<!DOCTYPE svg PUBLIC "-//W3C//DTD SVG 1.1//EN" "http://www.w3.org/Graphics/SVG/1.1/DTD/svg11.dtd">
<!-- Uploaded to: SVG Repo, www.svgrepo.com, Transformed by: SVG Repo Mixer Tools -->
<svg fill="#0d9488" height="64px" width="64px" version="1.1" id="Icons" xmlns="http://www.w3.org/2000/svg" xmlns:xlink="http://www.w3.org/1999/xlink" viewBox="0 0 32 32" xml:space="preserve" stroke="#0d9488">
<g id="SVGRepo_bgCarrier" stroke-width="0"/>
<g id="SVGRepo_tracerCarrier" stroke-linecap="round" stroke-linejoin="round"/>
<g id="SVGRepo_iconCarrier"> <g> <circle cx="16" cy="13" r="2"/> <path d="M16,3C10.5,3,6,7.5,6,13c0,8.4,9,15.5,9.4,15.8c0.2,0.1,0.4,0.2,0.6,0.2s0.4-0.1,0.6-0.2C17,28.5,26,21.4,26,13 C26,7.5,21.5,3,16,3z M16,17c-2.2,0-4-1.8-4-4s1.8-4,4-4s4,1.8,4,4S18.2,17,16,17z"/> </g> </g>
</svg>